<?xml version="1.0" encoding="UTF-8" standalone="no"?>
<!-- Created with Inkscape (http://www.inkscape.org/) -->

<svg
   version="1.1"
   id="svg1"
   width="1024"
   height="1024"
   viewBox="0 0 1024 1024"
   sodipodi:docname="logo_library_dark.svg"
   inkscape:version="1.4 (86a8ad7, 2024-10-11)"
   xmlns:inkscape="http://www.inkscape.org/namespaces/inkscape"
   xmlns:sodipodi="http://sodipodi.sourceforge.net/DTD/sodipodi-0.dtd"
   xmlns="http://www.w3.org/2000/svg"
   xmlns:svg="http://www.w3.org/2000/svg">
  <defs
     id="defs1">
    <linearGradient
       id="swatch1">
      <stop
         style="stop-color:#000000;stop-opacity:1;"
         offset="0"
         id="stop1" />
    </linearGradient>
  </defs>
  <sodipodi:namedview
     id="namedview1"
     pagecolor="#ffffff"
     bordercolor="#000000"
     borderopacity="0.25"
     inkscape:showpageshadow="2"
     inkscape:pageopacity="0.0"
     inkscape:pagecheckerboard="0"
     inkscape:deskcolor="#d1d1d1"
     inkscape:zoom="0.5"
     inkscape:cx="463"
     inkscape:cy="411"
     inkscape:window-width="1920"
     inkscape:window-height="1094"
     inkscape:window-x="-11"
     inkscape:window-y="-11"
     inkscape:window-maximized="1"
     inkscape:current-layer="g1" />
  <g
     inkscape:groupmode="layer"
     inkscape:label="Image"
     id="g1">
    <rect
       style="fill:#1f1a1f;fill-opacity:1"
       id="rect13"
       width="1024"
       height="1024"
       x="0"
       y="0" />
    <path
       id="path9"
       style="display:inline;fill:#e297e5;fill-opacity:1;stroke-width:1.13185"
       d="m 174.6582,693.09766 c -7.90899,-0.0487 -15.78495,0.14913 -23.64648,0.40234 -18.1729,1.33531 -12.10946,-5.42252 -86.119142,108.71484 -28.30462,43.6512 -28.878232,44.93198 -23.830078,52.97852 4.805023,7.65899 9.816707,8.17165 41.914062,4.25976 80.752198,-9.84172 156.348768,-1.98396 232.027348,24.11915 14.8767,5.13127 14.6679,5.19934 -9.05469,3.02734 -65.12866,-5.96305 -158.59553,-5.22704 -216.183595,1.70117 -65.351891,7.86226 -74.547412,11.99496 -73.363281,32.95117 1.034259,18.30362 8.579004,20.32731 52.425781,14.07422 96.907215,-13.82015 208.896135,-13.22026 311.259765,1.66211 56.94583,8.27922 59.42265,8.99429 98.97266,28.69531 33.31652,16.59601 32.7058,16.53059 52.69531,5.70899 40.66226,-22.01302 45.82075,-24.01204 76.9668,-29.82813 102.10615,-19.06689 232.988,-21.00865 350.30273,-5.19336 28.31646,3.81739 29.72441,3.93175 34.08399,2.75782 19.64512,-5.28991 19.36702,-35.38145 -0.38477,-41.69727 -6.99435,-2.23649 -35.01399,-6.89832 -55.00781,-9.15039 -62.926,-7.08788 -177.88911,-7.65011 -235.61914,-1.15039 -19.76244,2.22502 -19.24071,1.54254 5.09179,-6.64063 73.59621,-24.75084 169.16186,-32.02736 248.04102,-18.88671 19.09622,3.18127 28.6914,-1.09691 28.69141,-12.78321 0,-4.49367 -35.02732,-61.32741 -78.40821,-127.22656 -14.44222,-21.93893 -20.13269,-25.48775 -59.81055,-26.91992 -27.36328,-0.005 -54.56193,0.47358 -63.83203,1.44336 -103.66719,10.84554 -188.32593,43.81041 -258.16992,100.52539 -11.65179,9.46158 -11.5261,9.41253 -15.25586,5.42773 C 414.06624,701.23753 191.57459,693.53897 174.6582,693.09766 Z m 25.72461,34.83789 c 6.63238,-0.0797 13.07301,-0.0295 18.52735,0.19531 101.7771,4.1952 175.88712,34.28961 274.5625,111.49023 9.15028,7.15895 17.28515,13.4927 18.07617,14.07618 1.01889,0.75161 4.68314,-1.57898 12.57422,-7.99024 89.71911,-72.89377 161.22035,-105.43341 249.86523,-113.70508 22.79121,-2.12676 79.88973,-0.35803 92.9043,2.875 2.06884,0.51395 10.31531,12.51447 49.02734,71.35352 10.65661,16.19715 11.43722,14.57987 -6.17383,12.82226 -19.59872,-1.95593 -110.2801,-1.98042 -128.875,-0.0352 -103.66719,10.84554 -188.32593,43.81041 -258.16992,100.52539 -11.65179,9.46158 -11.5261,9.41253 -15.25586,5.42773 C 438.72137,851.54734 266.93649,804.69831 116.48047,818.3437 c -9.96023,0.90335 -18.276324,1.52263 -18.476564,1.37891 -0.60204,-0.43215 56.983484,-86.94186 58.937504,-88.54102 1.9235,-1.57411 23.54437,-3.00691 43.4414,-3.24609 z"
       sodipodi:nodetypes="scsssssssssssssssssssssccsssscssssssscsssssss" />
    <path
       style="display:inline;fill:#e3e31d;fill-opacity:1;stroke-width:1.78115;stroke-dasharray:none"
       d="m 632.25604,282.67452 c 0.55985,-0.72916 10.91301,-8.8394 23.00716,-18.02292 53.32172,-40.48895 65.10142,-64.76499 62.45808,-128.71567 -1.6263,-39.346273 0.69861,-41.41922 18.30141,-16.31838 40.18565,57.30299 63.38511,68.26556 132.76238,62.7348 34.08705,-2.71744 34.23349,-1.95826 4.01819,20.8577 -51.883,39.17781 -62.81669,64.85061 -57.32229,134.59621 2.18305,27.7118 -0.6667,28.01112 -20.96372,2.20199 -20.88861,-26.56135 -32.17829,-36.54159 -51.23816,-45.29522 -24.95193,-11.45972 -32.62473,-12.14423 -93.03772,-8.30019 -14.96514,0.95225 -20.67555,-0.23477 -17.98533,-3.73823 z"
       id="path26"
       inkscape:transform-center-x="72.640455"
       inkscape:transform-center-y="45.694593" />
    <rect
       style="fill:#e297e5;fill-opacity:1"
       id="rect12"
       width="152.02795"
       height="318.19806"
       x="631.8606"
       y="359.80194"
       rx="20"
       ry="20" />
    <rect
       style="fill:#e297e5;fill-opacity:1"
       id="rect12-1"
       width="152.02795"
       height="550"
       x="437.93033"
       y="128"
       rx="20"
       ry="20" />
    <rect
       style="fill:#e297e5;fill-opacity:1"
       id="rect12-1-1"
       width="152.028"
       height="400"
       x="244"
       y="278"
       rx="20"
       ry="20" />
  </g>
</svg>
